<svg xmlns="http://www.w3.org/2000/svg" xmlns:xlink="http://www.w3.org/1999/xlink" width="224" zoomAndPan="magnify" viewBox="0 0 168 121.500001" height="162" preserveAspectRatio="xMidYMid meet" version="1.0"><defs><clipPath id="875865d4e3"><path d="M 0.34375 0 L 132 0 L 132 120.253906 L 0.34375 120.253906 Z M 0.34375 0 " clip-rule="nonzero"/></clipPath><clipPath id="76a3263465"><path d="M 33 34 L 136.285156 34 L 136.285156 120.253906 L 33 120.253906 Z M 33 34 " clip-rule="nonzero"/></clipPath><clipPath id="aa2c867008"><path d="M 132.601562 85.375 L 167.65625 85.375 L 167.65625 120.480469 L 132.601562 120.480469 Z M 132.601562 85.375 " clip-rule="nonzero"/></clipPath></defs><g clip-path="url(#875865d4e3)"><path fill="yellow" d="M 21.648438 120.289062 L 21.648438 103.386719 L 21.5625 103.386719 L 21.5625 22.984375 C 22.046875 22.824219 22.261719 22.695312 22.46875 22.695312 C 42.335938 22.679688 62.210938 22.382812 82.070312 22.773438 C 93.59375 23 102.09375 29.015625 106.59375 39.628906 C 111.035156 50.121094 109.117188 59.96875 101.777344 68.722656 C 101.140625 69.480469 100.554688 70.277344 100.261719 70.65625 C 105.554688 75.882812 110.617188 80.886719 115.773438 85.976562 C 115.574219 86.085938 115.800781 86.007812 115.964844 85.863281 C 116.386719 85.484375 116.8125 85.09375 117.191406 84.671875 C 131.199219 68.992188 135.121094 50.992188 127.195312 31.597656 C 119.164062 11.949219 103.574219 1.183594 82.3125 0.652344 C 55.613281 -0.0078125 28.878906 0.472656 2.160156 0.472656 C 1.59375 0.472656 1.027344 0.515625 0.402344 0.570312 L 0.402344 120.289062 Z M 21.648438 120.289062 " fill-opacity="1" fill-rule="nonzero"/></g><g clip-path="url(#76a3263465)"><path fill="yellow" d="M 53.488281 120.289062 L 53.488281 72.085938 C 59.453125 77.992188 65.449219 83.929688 71.429688 89.851562 C 76.003906 94.371094 80.566406 98.890625 85.109375 103.382812 L 84.828125 103.382812 L 101.5625 120.289062 L 136.226562 120.289062 C 114.300781 98.464844 92.363281 76.640625 70.335938 54.722656 L 89.777344 54.722656 L 89.777344 34.167969 L 33.582031 34.167969 L 33.582031 120.289062 Z M 53.488281 120.289062 " fill-opacity="1" fill-rule="nonzero"/></g><path fill="yellow" d="M 53.628906 71.863281 C 68.707031 86.9375 83.78125 102.699219 99.269531 117.972656 " fill-opacity="1" fill-rule="nonzero"/><g clip-path="url(#aa2c867008)"><path fill="yellow" d="M 150.0625 85.375 C 159.703125 85.375 167.523438 93.191406 167.523438 102.832031 C 167.523438 112.476562 159.703125 120.292969 150.0625 120.292969 C 140.417969 120.292969 132.601562 112.476562 132.601562 102.832031 C 132.601562 93.191406 140.417969 85.375 150.0625 85.375 Z M 150.0625 85.375 " fill-opacity="1" fill-rule="evenodd"/></g></svg>